<?xml version="1.0" encoding="UTF-8" standalone="no"?>
<!DOCTYPE svg PUBLIC "-//W3C//DTD SVG 1.1//EN" "http://www.w3.org/Graphics/SVG/1.1/DTD/svg11.dtd">
<svg width="100%" height="100%" viewBox="0 0 132 224" version="1.1" xmlns="http://www.w3.org/2000/svg" xmlns:xlink="http://www.w3.org/1999/xlink" xml:space="preserve" xmlns:serif="http://www.serif.com/" style="fill-rule:evenodd;clip-rule:evenodd;stroke-linejoin:round;stroke-miterlimit:2;">
    <g transform="matrix(1,0,0,1,-1815,-113)">
        <g transform="matrix(1.55094,0,0,1.55094,-913.734,0)">
            <g transform="matrix(0.644769,0,0,0.644769,1638.17,-54.3573)">
                <path d="M244.724,402.002L226.114,402.002C205.572,402.002 188.894,385.324 188.894,364.782L188.894,253.122L188.895,253.242C188.959,263.418 197.208,271.667 207.384,271.732L207.504,271.732L218.288,271.732C211.035,256.892 213.572,238.455 225.902,226.126L254.029,197.998C254.029,197.998 282.157,226.126 282.157,226.126C294.486,238.455 297.023,256.892 289.77,271.732L300.554,271.732L300.674,271.732C310.85,271.667 319.099,263.418 319.164,253.242L319.164,253.122L319.164,364.782C319.164,385.324 302.486,402.002 281.944,402.002L263.334,402.002L263.334,420.612L244.724,420.612L244.724,402.002ZM244.724,383.392L244.724,364.782C244.724,354.511 236.385,346.172 226.114,346.172L207.504,346.172L207.504,364.782C207.504,375.053 215.843,383.392 226.114,383.392L244.724,383.392ZM263.334,364.782C263.334,354.511 271.673,346.172 281.944,346.172L300.554,346.172L300.554,364.782C300.554,375.053 292.215,383.392 281.944,383.392L263.334,383.392L263.334,364.782ZM263.334,308.952C263.334,298.681 271.673,290.342 281.944,290.342L300.554,290.342L300.554,308.952C300.554,319.223 292.215,327.562 281.944,327.562L263.334,327.562L263.334,308.952ZM244.724,308.952C244.724,298.681 236.385,290.342 226.114,290.342L207.504,290.342L207.504,308.952C207.504,319.223 215.843,327.562 226.114,327.562L244.724,327.562L244.724,308.952ZM267.188,267.412C274.451,260.15 274.451,248.357 267.188,241.094C267.188,241.094 254.029,227.935 254.029,227.935L240.87,241.094C233.607,248.357 233.607,260.15 240.87,267.412L254.029,280.572L267.188,267.412Z" style="fill:url(#_Linear1);"/>
            </g>
        </g>
    </g>
    <defs>
        <linearGradient id="_Linear1" x1="0" y1="0" x2="1" y2="0" gradientUnits="userSpaceOnUse" gradientTransform="matrix(1.36312e-14,222.614,-222.614,1.36312e-14,254.029,197.998)"><stop offset="0" style="stop-color:rgb(255,215,118);stop-opacity:1"/><stop offset="1" style="stop-color:rgb(246,117,0);stop-opacity:1"/></linearGradient>
    </defs>
</svg>
